<svg version="1.1" id="Layer_1" xmlns="http://www.w3.org/2000/svg" xmlns:xlink="http://www.w3.org/1999/xlink" x="0px" y="0px"
	 width="11.194px" height="30px" viewBox="0 0 11.194 30" enable-background="new 0 0 11.194 30" xml:space="preserve">
<path fill="#00BC66" d="M5.597,12.503C2.506,12.503,0,15.111,0,18.328C0,23.594,6.242,25.918,4.478,30
	c2.864-1.979,6.716-7.606,6.716-11.672C11.194,15.111,8.688,12.503,5.597,12.503z M5.597,19.701c-1.237,0-2.239-1.018-2.239-2.273
	c0-1.256,1.002-2.273,2.239-2.273c1.236,0,2.239,1.018,2.239,2.273C7.836,18.684,6.834,19.701,5.597,19.701z"/>
<path fill="#00BC66" d="M1.866,12.882c2.071-1.668,5.383-1.668,7.463,0L8.582,0h-5.97L1.866,12.882z"/>
</svg>
